<?xml version="1.0" standalone="no"?>
<!DOCTYPE svg PUBLIC "-//W3C//DTD SVG 20010904//EN"
 "http://www.w3.org/TR/2001/REC-SVG-20010904/DTD/svg10.dtd">
<svg version="1.0" xmlns="http://www.w3.org/2000/svg"
 width="700.000000pt" height="700.000000pt" viewBox="0 0 700.000000 700.000000"
 preserveAspectRatio="xMidYMid meet">
<metadata>
Created by potrace 1.14, written by Peter Selinger 2001-2017
</metadata>
<g transform="translate(0.000000,700.000000) scale(0.100000,-0.100000)"
fill="#000000" stroke="none">
<path d="M4740 6234 c-96 -41 -185 -78 -197 -84 -22 -9 -21 -11 28 -82 75
-108 202 -323 286 -485 41 -79 79 -145 84 -149 7 -4 392 158 408 172 8 7 -267
480 -380 651 -19 29 -38 52 -44 52 -5 0 -89 -34 -185 -75z"/>
<path d="M4112 5991 c-107 -44 -195 -81 -198 -83 -2 -2 16 -33 40 -69 102
-153 293 -506 280 -519 -5 -5 -52 -17 -104 -26 -81 -15 -187 -18 -719 -21
l-624 -5 38 69 c53 94 200 336 247 406 27 40 35 59 26 62 -78 26 -729 225
-735 225 -4 0 -22 -45 -40 -99 -101 -315 -383 -776 -724 -1186 -117 -140 -431
-453 -574 -571 -144 -119 -304 -238 -443 -329 -56 -37 -100 -70 -97 -75 5 -8
519 -409 541 -423 7 -4 66 33 135 85 402 300 784 675 1132 1111 l109 137 738
0 738 0 -20 -72 c-48 -174 -188 -487 -318 -714 -106 -183 -221 -355 -233 -347
-7 4 -57 37 -112 73 -206 138 -426 278 -615 392 l-195 119 -227 -233 c-125
-128 -227 -236 -228 -241 0 -4 46 -37 103 -74 172 -112 794 -541 827 -571 8
-7 -193 -196 -326 -307 -406 -337 -902 -607 -1436 -781 -65 -21 -118 -41 -118
-45 0 -4 120 -112 267 -240 148 -128 280 -244 296 -258 l27 -25 133 53 c585
236 1113 581 1564 1024 l153 150 97 -79 c54 -44 160 -133 237 -199 233 -201
205 -181 226 -159 11 10 123 141 249 289 182 215 227 273 218 284 -12 14 -491
375 -539 405 l-27 18 83 121 c242 353 476 803 615 1182 96 261 124 330 182
446 l57 117 -184 113 c-101 63 -184 116 -184 119 0 3 63 32 140 64 l140 59
-78 151 c-121 232 -317 556 -337 556 -5 -1 -97 -36 -203 -79z"/>
<path d="M5525 3610 c-129 -14 -234 -66 -336 -169 -51 -51 -86 -97 -107 -141
-60 -123 -62 -141 -62 -831 0 -591 1 -630 20 -703 27 -105 73 -189 145 -262
176 -178 437 -223 663 -112 92 45 208 160 250 248 63 130 62 119 62 842 l0
657 -25 78 c-83 261 -332 421 -610 393z"/>
<path d="M4260 1858 c0 -24 7 -86 14 -138 60 -398 318 -750 697 -954 93 -50
296 -121 378 -132 l51 -7 0 -313 0 -314 190 0 190 0 2 312 3 311 70 14 c396
79 758 357 939 721 73 145 126 350 126 483 l0 59 -159 0 -158 0 -7 -79 c-21
-250 -156 -503 -353 -659 -212 -169 -499 -254 -753 -223 -362 44 -654 242
-809 548 -45 89 -81 224 -88 326 l-6 87 -163 0 -164 0 0 -42z"/>
</g>
</svg>
